<svg xmlns="http://www.w3.org/2000/svg" viewBox="0 0 128 128" role="img" aria-labelledby="title desc">
  <title id="title">CookieBuddy logo</title>
  <desc id="desc">A friendly cookie character with a shield.</desc>
  <defs>
    <linearGradient id="cookie" x1="23" y1="12" x2="105" y2="118" gradientUnits="userSpaceOnUse">
      <stop stop-color="#F9D58A"/>
      <stop offset="1" stop-color="#D9853D"/>
    </linearGradient>
    <linearGradient id="shield" x1="63" y1="44" x2="104" y2="102" gradientUnits="userSpaceOnUse">
      <stop stop-color="#88E2C8"/>
      <stop offset="1" stop-color="#23685A"/>
    </linearGradient>
  </defs>
  <circle cx="64" cy="64" r="54" fill="url(#cookie)"/>
  <path d="M99 44c-12 1-20-5-26-13a54 54 0 0 0-58 61 54 54 0 0 0 90-42c0-2-3-5-6-6Z" fill="#F5B765" opacity=".58"/>
  <circle cx="40" cy="43" r="7" fill="#6E3C20"/>
  <circle cx="70" cy="34" r="5" fill="#6E3C20"/>
  <circle cx="36" cy="81" r="5" fill="#6E3C20"/>
  <circle cx="58" cy="65" r="6" fill="#6E3C20"/>
  <circle cx="86" cy="70" r="4" fill="#6E3C20"/>
  <path d="M46 89c9 9 27 10 38-2" fill="none" stroke="#6E3C20" stroke-width="7" stroke-linecap="round"/>
  <path d="M83 51 107 61v20c0 17-11 28-24 34-13-6-24-17-24-34V61l24-10Z" fill="url(#shield)" stroke="#174D43" stroke-width="4" stroke-linejoin="round"/>
  <path d="m72 82 8 8 16-20" fill="none" stroke="#FFF8EA" stroke-width="7" stroke-linecap="round" stroke-linejoin="round"/>
</svg>
